<svg width="1280" height="720" xmlns="http://www.w3.org/2000/svg" xmlns:xlink="http://www.w3.org/1999/xlink" overflow="hidden"><defs><clipPath id="clip0"><rect x="0" y="0" width="1280" height="720"/></clipPath></defs><g clip-path="url(#clip0)"><rect x="0" y="0" width="1280" height="720" fill="#FFFFFF"/><path d="M654.5 541.667C654.5 534.395 684.049 528.5 720.5 528.5 756.951 528.5 786.5 534.395 786.5 541.667L786.5 594.333C786.5 601.605 756.951 607.5 720.5 607.5 684.049 607.5 654.5 601.605 654.5 594.333Z" fill="#4472C4" fill-rule="evenodd"/><path d="M786.5 541.667C786.5 548.938 756.951 554.833 720.5 554.833 684.049 554.833 654.5 548.938 654.5 541.667" stroke="#2F528F" stroke-width="1.33333" stroke-miterlimit="8" fill="none" fill-rule="evenodd"/><path d="M654.5 541.667C654.5 534.395 684.049 528.5 720.5 528.5 756.951 528.5 786.5 534.395 786.5 541.667L786.5 594.333C786.5 601.605 756.951 607.5 720.5 607.5 684.049 607.5 654.5 601.605 654.5 594.333Z" stroke="#2F528F" stroke-width="1.33333" stroke-miterlimit="8" fill="none" fill-rule="evenodd"/><text fill="#92D050" font-family="Calibri,Calibri_MSFontService,sans-serif" font-weight="400" font-size="9" transform="translate(672.652 570)">cen_deu_1997</text><text fill="#92D050" font-family="Calibri,Calibri_MSFontService,sans-serif" font-weight="400" font-size="9" transform="translate(728.485 570)">-</text><text fill="#92D050" font-family="Calibri,Calibri_MSFontService,sans-serif" font-weight="400" font-size="9" transform="translate(731.319 570)">06_2001</text><text fill="#92D050" font-family="Calibri,Calibri_MSFontService,sans-serif" font-weight="400" font-size="9" transform="translate(763.985 570)">-</text><text fill="#92D050" font-family="Calibri,Calibri_MSFontService,sans-serif" font-weight="400" font-size="9" transform="translate(672.652 581)">06_todas_ent_fcieras.dta</text><path d="M645.5 652.667C645.5 645.395 675.273 639.5 712 639.5 748.727 639.5 778.5 645.395 778.5 652.667L778.5 705.333C778.5 712.605 748.727 718.5 712 718.5 675.273 718.5 645.5 712.605 645.5 705.333Z" fill="#4472C4" fill-rule="evenodd"/><path d="M778.5 652.667C778.5 659.938 748.727 665.833 712 665.833 675.273 665.833 645.5 659.938 645.5 652.667" stroke="#2F528F" stroke-width="1.33333" stroke-miterlimit="8" fill="none" fill-rule="evenodd"/><path d="M645.5 652.667C645.5 645.395 675.273 639.5 712 639.5 748.727 639.5 778.5 645.395 778.5 652.667L778.5 705.333C778.5 712.605 748.727 718.5 712 718.5 675.273 718.5 645.5 712.605 645.5 705.333Z" stroke="#2F528F" stroke-width="1.33333" stroke-miterlimit="8" fill="none" fill-rule="evenodd"/><text fill="#92D050" font-family="Calibri,Calibri_MSFontService,sans-serif" font-weight="400" font-size="8" transform="translate(648.696 680)">cen_deu_1997</text><text fill="#92D050" font-family="Calibri,Calibri_MSFontService,sans-serif" font-weight="400" font-size="8" transform="translate(696.529 680)">-</text><text fill="#92D050" font-family="Calibri,Calibri_MSFontService,sans-serif" font-weight="400" font-size="8" transform="translate(699.029 680)">06_2001</text><text fill="#92D050" font-family="Calibri,Calibri_MSFontService,sans-serif" font-weight="400" font-size="8" transform="translate(727.029 680)">-</text><text fill="#92D050" font-family="Calibri,Calibri_MSFontService,sans-serif" font-weight="400" font-size="8" transform="translate(729.529 680)">quarterly .dta</text><path d="M0.321908-0.0865221 7.24837 25.6836 6.60455 25.8566-0.321908 0.0865221ZM10.4433 23.4442 8.6569 32.2083 2.71747 25.5208Z" fill="#4472C4" transform="matrix(-1 0 0 1 720.157 607.5)"/><path d="M572.5 248.5C572.5 241.32 602.049 235.5 638.5 235.5 674.951 235.5 704.5 241.32 704.5 248.5L704.5 300.5C704.5 307.68 674.951 313.5 638.5 313.5 602.049 313.5 572.5 307.68 572.5 300.5Z" fill="#4472C4" fill-rule="evenodd"/><path d="M704.5 248.5C704.5 255.68 674.951 261.5 638.5 261.5 602.049 261.5 572.5 255.68 572.5 248.5" stroke="#2F528F" stroke-width="1.33333" stroke-miterlimit="8" fill="none" fill-rule="evenodd"/><path d="M572.5 248.5C572.5 241.32 602.049 235.5 638.5 235.5 674.951 235.5 704.5 241.32 704.5 248.5L704.5 300.5C704.5 307.68 674.951 313.5 638.5 313.5 602.049 313.5 572.5 307.68 572.5 300.5Z" stroke="#2F528F" stroke-width="1.33333" stroke-miterlimit="8" fill="none" fill-rule="evenodd"/><text fill="#92D050" font-family="Calibri,Calibri_MSFontService,sans-serif" font-weight="400" font-size="8" transform="translate(589.107 276)">failures</text><text fill="#92D050" font-family="Calibri,Calibri_MSFontService,sans-serif" font-weight="400" font-size="8" transform="translate(613.274 276)">-</text><text fill="#92D050" font-family="Calibri,Calibri_MSFontService,sans-serif" font-weight="400" font-size="8" transform="translate(615.774 276)">allEnts</text><text fill="#92D050" font-family="Calibri,Calibri_MSFontService,sans-serif" font-weight="400" font-size="8" transform="translate(637.107 276)">-</text><text fill="#92D050" font-family="Calibri,Calibri_MSFontService,sans-serif" font-weight="400" font-size="8" transform="translate(639.607 276)">1997</text><text fill="#92D050" font-family="Calibri,Calibri_MSFontService,sans-serif" font-weight="400" font-size="8" transform="translate(655.607 276)">-</text><text fill="#92D050" font-family="Calibri,Calibri_MSFontService,sans-serif" font-weight="400" font-size="8" transform="translate(658.107 276)">2004.dta</text><path d="M572.5 126.667C572.5 119.395 602.049 113.5 638.5 113.5 674.951 113.5 704.5 119.395 704.5 126.667L704.5 179.333C704.5 186.605 674.951 192.5 638.5 192.5 602.049 192.5 572.5 186.605 572.5 179.333Z" fill="#4472C4" fill-rule="evenodd"/><path d="M704.5 126.667C704.5 133.938 674.951 139.833 638.5 139.833 602.049 139.833 572.5 133.938 572.5 126.667" stroke="#2F528F" stroke-width="1.33333" stroke-miterlimit="8" fill="none" fill-rule="evenodd"/><path d="M572.5 126.667C572.5 119.395 602.049 113.5 638.5 113.5 674.951 113.5 704.5 119.395 704.5 126.667L704.5 179.333C704.5 186.605 674.951 192.5 638.5 192.5 602.049 192.5 572.5 186.605 572.5 179.333Z" stroke="#2F528F" stroke-width="1.33333" stroke-miterlimit="8" fill="none" fill-rule="evenodd"/><text fill="#92D050" font-family="Calibri,Calibri_MSFontService,sans-serif" font-weight="400" font-size="8" transform="translate(588.774 155)">capital</text><text fill="#92D050" font-family="Calibri,Calibri_MSFontService,sans-serif" font-weight="400" font-size="8" transform="translate(610.274 155)">-</text><text fill="#92D050" font-family="Calibri,Calibri_MSFontService,sans-serif" font-weight="400" font-size="8" transform="translate(612.774 155)">allEntities</text><text fill="#92D050" font-family="Calibri,Calibri_MSFontService,sans-serif" font-weight="400" font-size="8" transform="translate(644.441 155)">-</text><text fill="#92D050" font-family="Calibri,Calibri_MSFontService,sans-serif" font-weight="400" font-size="8" transform="translate(646.941 155)">Monthly.dta</text><path d="M638.833 192.5 638.833 228.682 638.167 228.682 638.167 192.5ZM642.5 227.349 638.5 235.349 634.5 227.349Z" fill="#4472C4"/><path d="M585.5 380.667C585.5 373.395 615.273 367.5 652 367.5 688.727 367.5 718.5 373.395 718.5 380.667L718.5 433.333C718.5 440.605 688.727 446.5 652 446.5 615.273 446.5 585.5 440.605 585.5 433.333Z" fill="#4472C4" fill-rule="evenodd"/><path d="M718.5 380.667C718.5 387.938 688.727 393.833 652 393.833 615.273 393.833 585.5 387.938 585.5 380.667" stroke="#2F528F" stroke-width="1.33333" stroke-miterlimit="8" fill="none" fill-rule="evenodd"/><path d="M585.5 380.667C585.5 373.395 615.273 367.5 652 367.5 688.727 367.5 718.5 373.395 718.5 380.667L718.5 433.333C718.5 440.605 688.727 446.5 652 446.5 615.273 446.5 585.5 440.605 585.5 433.333Z" stroke="#2F528F" stroke-width="1.33333" stroke-miterlimit="8" fill="none" fill-rule="evenodd"/><text fill="#92D050" font-family="Calibri,Calibri_MSFontService,sans-serif" font-weight="400" font-size="8" transform="translate(625.181 409)">failure_time.dta</text><rect x="355.5" y="146.5" width="125" height="32" stroke="#4472C4" stroke-width="1.33333" stroke-miterlimit="8" fill="#FFFFFF"/><text font-family="Calibri,Calibri_MSFontService,sans-serif" font-weight="400" font-size="19" transform="translate(392.209 168)">BANKS</text><rect x="366.5" y="383.5" width="125" height="32" stroke="#4472C4" stroke-width="1.33333" stroke-miterlimit="8" fill="#FFFFFF"/><text font-family="Calibri,Calibri_MSFontService,sans-serif" font-weight="400" font-size="19" transform="translate(393.361 405)">FAILURES</text><rect x="377.5" y="597.5" width="125" height="32" stroke="#4472C4" stroke-width="1.33333" stroke-miterlimit="8" fill="#FFFFFF"/><text font-family="Calibri,Calibri_MSFontService,sans-serif" font-weight="400" font-size="19" transform="translate(400.107 619)">NETWORK</text><rect x="26.5001" y="17.5001" width="166" height="38" stroke="#000000" stroke-width="1.33333" stroke-miterlimit="8"/><text fill="#FFFFFF" font-family="Calibri,Calibri_MSFontService,sans-serif" font-weight="400" font-size="24" transform="translate(36.0466 43)">/data/</text><rect x="336.5" y="107.5" width="166" height="39" stroke="#000000" stroke-width="1.33333" stroke-miterlimit="8"/><text fill="#FFFFFF" font-family="Calibri,Calibri_MSFontService,sans-serif" font-weight="400" font-size="24" transform="translate(345.625 134)">/data/</text><text fill="#FFFFFF" font-family="Calibri,Calibri_MSFontService,sans-serif" font-weight="400" font-size="24" transform="translate(407.445 134)">DBbanks</text><rect x="358.5" y="341.5" width="166" height="38" stroke="#000000" stroke-width="1.33333" stroke-miterlimit="8"/><text fill="#FFFFFF" font-family="Calibri,Calibri_MSFontService,sans-serif" font-weight="400" font-size="24" transform="translate(368.008 367)">/data/failures</text><rect x="337.5" y="555.5" width="262" height="38" stroke="#000000" stroke-width="1.33333" stroke-miterlimit="8"/><text fill="#FFFFFF" font-family="Calibri,Calibri_MSFontService,sans-serif" font-weight="400" font-size="24" transform="translate(346.726 581)">/data/</text><text fill="#FFFFFF" font-family="Calibri,Calibri_MSFontService,sans-serif" font-weight="400" font-size="24" transform="translate(408.546 581)">interloans</text><path d="M35.5001 148.5C35.5001 141.32 65.2731 135.5 102 135.5 138.727 135.5 168.5 141.32 168.5 148.5L168.5 200.5C168.5 207.68 138.727 213.5 102 213.5 65.2731 213.5 35.5001 207.68 35.5001 200.5Z" fill="#4472C4" fill-rule="evenodd"/><path d="M168.5 148.5C168.5 155.68 138.727 161.5 102 161.5 65.2731 161.5 35.5001 155.68 35.5001 148.5" stroke="#2F528F" stroke-width="1.33333" stroke-miterlimit="8" fill="none" fill-rule="evenodd"/><path d="M35.5001 148.5C35.5001 141.32 65.2731 135.5 102 135.5 138.727 135.5 168.5 141.32 168.5 148.5L168.5 200.5C168.5 207.68 138.727 213.5 102 213.5 65.2731 213.5 35.5001 207.68 35.5001 200.5Z" stroke="#2F528F" stroke-width="1.33333" stroke-miterlimit="8" fill="none" fill-rule="evenodd"/><text fill="#92D050" font-family="Calibri,Calibri_MSFontService,sans-serif" font-weight="400" font-size="8" transform="translate(42.3633 176)">BAFA</text><text fill="#92D050" font-family="Calibri,Calibri_MSFontService,sans-serif" font-weight="400" font-size="8" transform="translate(59.6966 176)">-</text><text fill="#92D050" font-family="Calibri,Calibri_MSFontService,sans-serif" font-weight="400" font-size="8" transform="translate(62.1966 176)">main</text><text fill="#92D050" font-family="Calibri,Calibri_MSFontService,sans-serif" font-weight="400" font-size="8" transform="translate(78.3633 176)">-</text><text fill="#92D050" font-family="Calibri,Calibri_MSFontService,sans-serif" font-weight="400" font-size="8" transform="translate(80.8633 176)">1997</text><text fill="#92D050" font-family="Calibri,Calibri_MSFontService,sans-serif" font-weight="400" font-size="8" transform="translate(96.8633 176)">-</text><text fill="#92D050" font-family="Calibri,Calibri_MSFontService,sans-serif" font-weight="400" font-size="8" transform="translate(99.3633 176)">2001</text><text fill="#92D050" font-family="Calibri,Calibri_MSFontService,sans-serif" font-weight="400" font-size="8" transform="translate(115.363 176)">-</text><text fill="#92D050" font-family="Calibri,Calibri_MSFontService,sans-serif" font-weight="400" font-size="8" transform="translate(117.863 176)">quarterly.dta</text><path d="M562.994 275.117 277.974 275.117 277.974 111.5 278.308 111.834 101.5 111.834 101.833 111.5 101.833 128.833 101.167 128.833 101.167 111.167 278.641 111.167 278.641 274.784 278.308 274.45 562.994 274.45ZM105.5 127.5 101.5 135.5 97.5 127.5Z" fill="#4472C4"/><path d="M584.804 422.024 237.317 422.024 237.317 194.5 237.651 194.833 177.167 194.833 177.167 194.167 237.984 194.167 237.984 421.691 237.651 421.358 584.804 421.358ZM178.5 198.5 170.5 194.5 178.5 190.5Z" fill="#4472C4"/></g></svg>